<svg width="140" height="29" viewBox="0 0 140 29" fill="none" xmlns="http://www.w3.org/2000/svg">
<path d="M6.984 22.12C6.088 22.12 5.264 21.944 4.512 21.592C3.76 21.24 3.112 20.752 2.568 20.128C2.04 19.488 1.624 18.744 1.32 17.896C1.032 17.032 0.888 16.104 0.888 15.112C0.888 13.736 1.16 12.432 1.704 11.2C2.264 9.968 3.016 8.872 3.96 7.912C4.904 6.952 5.968 6.2 7.152 5.656C8.336 5.112 9.576 4.84 10.872 4.84C12.392 4.84 13.624 5.184 14.568 5.872C15.528 6.544 16.168 7.44 16.488 8.56L13.632 10.384C13.424 9.536 13 8.888 12.36 8.44C11.736 7.992 11 7.768 10.152 7.768C9.368 7.768 8.616 7.968 7.896 8.368C7.192 8.752 6.568 9.272 6.024 9.928C5.48 10.584 5.048 11.328 4.728 12.16C4.424 12.992 4.272 13.856 4.272 14.752C4.272 15.584 4.416 16.336 4.704 17.008C4.992 17.68 5.408 18.216 5.952 18.616C6.496 19 7.144 19.192 7.896 19.192C8.712 19.192 9.536 18.968 10.368 18.52C11.2 18.072 12.024 17.416 12.84 16.552L12.144 19.816C11.312 20.6 10.472 21.184 9.624 21.568C8.776 21.936 7.896 22.12 6.984 22.12ZM12.792 15.664H9.552L10.08 13.24H16.056L14.184 22H11.448L12.792 15.664ZM49.5578 22.24C48.5338 22.24 47.5658 22.072 46.6538 21.736C45.7578 21.4 45.0378 20.92 44.4937 20.296L46.1018 18.28C46.7098 18.808 47.3338 19.216 47.9738 19.504C48.6138 19.776 49.2618 19.912 49.9178 19.912C50.3658 19.912 50.7498 19.848 51.0698 19.72C51.3898 19.576 51.6378 19.392 51.8138 19.168C51.9898 18.928 52.0778 18.656 52.0778 18.352C52.0778 17.952 51.9018 17.656 51.5498 17.464C51.1978 17.272 50.6458 17.064 49.8938 16.84C49.0618 16.568 48.3738 16.312 47.8298 16.072C47.3018 15.816 46.9098 15.52 46.6538 15.184C46.3978 14.832 46.2698 14.392 46.2698 13.864C46.2698 12.968 46.5178 12.168 47.0138 11.464C47.5258 10.76 48.2058 10.208 49.0538 9.808C49.9178 9.392 50.8778 9.184 51.9338 9.184C52.8458 9.184 53.6618 9.328 54.3818 9.616C55.1018 9.888 55.7418 10.32 56.3018 10.912L54.5978 12.856C54.0858 12.376 53.5898 12.032 53.1098 11.824C52.6458 11.6 52.1338 11.488 51.5738 11.488C51.1578 11.488 50.7818 11.552 50.4458 11.68C50.1258 11.792 49.8698 11.968 49.6778 12.208C49.4858 12.448 49.3898 12.736 49.3898 13.072C49.3898 13.44 49.5338 13.712 49.8218 13.888C50.1258 14.048 50.6458 14.24 51.3818 14.464C52.2778 14.72 53.0138 14.992 53.5898 15.28C54.1658 15.552 54.5978 15.88 54.8858 16.264C55.1738 16.648 55.3178 17.136 55.3178 17.728C55.3178 18.608 55.0778 19.384 54.5978 20.056C54.1178 20.728 53.4458 21.264 52.5818 21.664C51.7178 22.048 50.7098 22.24 49.5578 22.24ZM62.0981 22.24C61.0421 22.24 60.1221 22.016 59.3381 21.568C58.5701 21.104 57.9781 20.472 57.5621 19.672C57.1621 18.856 56.9621 17.936 56.9621 16.912C56.9621 15.872 57.1621 14.888 57.5621 13.96C57.9621 13.032 58.5221 12.216 59.2421 11.512C59.9621 10.792 60.8021 10.232 61.7621 9.832C62.7221 9.416 63.7621 9.208 64.8821 9.208C65.7941 9.208 66.5861 9.344 67.2581 9.616C67.9301 9.888 68.4501 10.288 68.8181 10.816C69.1861 11.328 69.3701 11.96 69.3701 12.712C69.3701 14.04 68.7621 15.048 67.5461 15.736C66.3461 16.424 64.5381 16.768 62.1221 16.768C61.6421 16.768 61.1221 16.76 60.5621 16.744C60.0021 16.712 59.3941 16.664 58.7381 16.6L59.1461 14.584C59.7221 14.632 60.2501 14.672 60.7301 14.704C61.2101 14.72 61.6821 14.728 62.1461 14.728C63.1861 14.728 64.0021 14.656 64.5941 14.512C65.2021 14.368 65.6421 14.16 65.9141 13.888C66.1861 13.616 66.3221 13.296 66.3221 12.928C66.3221 12.608 66.2421 12.352 66.0821 12.16C65.9221 11.952 65.6981 11.8 65.4101 11.704C65.1381 11.592 64.8101 11.536 64.4261 11.536C63.8021 11.536 63.2261 11.688 62.6981 11.992C62.1861 12.28 61.7381 12.68 61.3541 13.192C60.9701 13.704 60.6741 14.288 60.4661 14.944C60.2581 15.6 60.1541 16.296 60.1541 17.032C60.1541 17.576 60.2421 18.072 60.4181 18.52C60.6101 18.952 60.8901 19.288 61.2581 19.528C61.6261 19.768 62.0981 19.888 62.6741 19.888C63.3141 19.888 63.9141 19.736 64.4741 19.432C65.0501 19.128 65.5061 18.704 65.8421 18.16L68.3861 18.952C67.9701 19.592 67.4261 20.16 66.7541 20.656C66.0821 21.152 65.3461 21.544 64.5461 21.832C63.7461 22.104 62.9301 22.24 62.0981 22.24ZM79.3328 4.96H90.2288L89.6048 7.864H81.9968L81.0848 12.256H87.3728L86.7968 14.944H80.5088L78.9967 22H75.7088L79.3328 4.96ZM91.7087 22.192C90.9087 22.192 90.2847 22.008 89.8367 21.64C89.4047 21.256 89.1887 20.712 89.1887 20.008C89.1887 19.864 89.1967 19.72 89.2127 19.576C89.2447 19.416 89.2687 19.256 89.2847 19.096L92.4047 4.48H95.5967L92.7407 17.968C92.7247 18.048 92.7087 18.128 92.6927 18.208C92.6927 18.288 92.6927 18.368 92.6927 18.448C92.6927 19.104 93.0207 19.432 93.6767 19.432C93.8527 19.432 94.0527 19.4 94.2767 19.336C94.5167 19.272 94.7407 19.192 94.9487 19.096L94.8527 21.544C94.4047 21.752 93.8847 21.912 93.2927 22.024C92.7007 22.136 92.1727 22.192 91.7087 22.192ZM98.7789 9.424H101.995L99.3309 22H96.1149L98.7789 9.424ZM99.8349 4.48H103.051L102.379 7.672H99.1629L99.8349 4.48ZM106.169 27.352C104.857 27.352 103.793 27.12 102.977 26.656C102.177 26.208 101.545 25.568 101.081 24.736L103.193 23.032C103.513 23.624 103.977 24.088 104.585 24.424C105.193 24.76 105.889 24.928 106.673 24.928C107.297 24.928 107.897 24.8 108.473 24.544C109.049 24.304 109.553 23.92 109.985 23.392C110.433 22.88 110.737 22.216 110.897 21.4L111.233 19.816C110.689 20.536 110.017 21.096 109.217 21.496C108.433 21.88 107.641 22.072 106.841 22.072C105.961 22.072 105.201 21.848 104.561 21.4C103.937 20.952 103.465 20.352 103.145 19.6C102.825 18.832 102.665 17.984 102.665 17.056C102.665 16.016 102.849 15.024 103.217 14.08C103.601 13.136 104.121 12.304 104.777 11.584C105.449 10.848 106.209 10.272 107.057 9.856C107.921 9.424 108.825 9.208 109.769 9.208C110.697 9.208 111.457 9.432 112.049 9.88C112.657 10.312 113.105 10.896 113.393 11.632L113.849 9.424H116.681L114.113 21.4C113.857 22.648 113.345 23.712 112.577 24.592C111.809 25.488 110.873 26.168 109.769 26.632C108.665 27.112 107.465 27.352 106.169 27.352ZM108.497 19.504C108.817 19.504 109.129 19.448 109.433 19.336C109.753 19.224 110.057 19.072 110.345 18.88C110.633 18.688 110.897 18.464 111.137 18.208C111.377 17.936 111.585 17.664 111.761 17.392L112.385 14.392C112.321 13.896 112.169 13.464 111.929 13.096C111.689 12.728 111.393 12.448 111.041 12.256C110.705 12.048 110.329 11.944 109.913 11.944C109.385 11.944 108.889 12.08 108.425 12.352C107.961 12.624 107.545 12.984 107.177 13.432C106.809 13.864 106.521 14.352 106.313 14.896C106.105 15.44 106.001 16 106.001 16.576C106.001 17.104 106.105 17.6 106.313 18.064C106.521 18.512 106.809 18.864 107.177 19.12C107.561 19.376 108.001 19.504 108.497 19.504ZM120.577 4.48H123.793L122.233 11.752C122.841 10.952 123.569 10.328 124.417 9.88C125.265 9.432 126.137 9.208 127.033 9.208C127.785 9.208 128.369 9.344 128.785 9.616C129.217 9.872 129.521 10.224 129.697 10.672C129.889 11.104 129.985 11.6 129.985 12.16C129.985 12.48 129.961 12.808 129.913 13.144C129.881 13.48 129.825 13.816 129.745 14.152L128.089 22H124.873L126.361 14.944C126.409 14.72 126.441 14.512 126.457 14.32C126.489 14.128 126.505 13.944 126.505 13.768C126.505 13.176 126.377 12.744 126.121 12.472C125.865 12.184 125.505 12.04 125.041 12.04C124.705 12.04 124.313 12.152 123.865 12.376C123.433 12.6 123.017 12.912 122.617 13.312C122.217 13.696 121.889 14.144 121.633 14.656L120.073 22H116.857L120.577 4.48ZM131.886 20.008C131.886 19.864 131.894 19.72 131.91 19.576C131.926 19.432 131.95 19.28 131.982 19.12L133.518 11.896H131.958L132.486 9.424H134.022L134.886 5.344H138.102L137.238 9.424H139.758L139.23 11.896H136.734L135.414 18.04C135.398 18.104 135.382 18.168 135.366 18.232C135.366 18.296 135.366 18.36 135.366 18.424C135.366 18.728 135.454 18.944 135.63 19.072C135.806 19.2 136.022 19.264 136.278 19.264C136.486 19.264 136.694 19.24 136.902 19.192C137.126 19.144 137.334 19.08 137.526 19C137.718 18.92 137.886 18.856 138.03 18.808L138.126 21.352C137.806 21.496 137.446 21.64 137.046 21.784C136.646 21.912 136.23 22.016 135.798 22.096C135.366 22.176 134.934 22.216 134.502 22.216C133.75 22.216 133.126 22.048 132.63 21.712C132.134 21.36 131.886 20.792 131.886 20.008Z" fill="#333333"/>
<path d="M34.1989 10.3964L38.3494 11.5946L42.9112 8.28149L36.3644 8.46917C36.3003 8.47267 36.2382 8.49255 36.1839 8.52691L34.1123 9.7179C34.0479 9.75361 33.9956 9.80782 33.9623 9.87354C33.9291 9.93926 33.9162 10.0134 33.9256 10.0865C33.9349 10.1596 33.9659 10.2282 34.0147 10.2834C34.0634 10.3387 34.1276 10.378 34.1989 10.3964Z" fill="#EAA121"/>
<path d="M54.6047 6.68629L50.0572 5.70463C49.6748 5.6216 49.279 5.62182 48.8966 5.70526C48.5143 5.78871 48.1543 5.95343 47.8413 6.18824L34.1051 16.1709L30.8065 16.0266C30.6175 16.0201 30.4313 16.0732 30.2742 16.1783C30.117 16.2834 29.9969 16.4353 29.9307 16.6123C29.8645 16.7894 29.8556 16.9828 29.9052 17.1652C29.9548 17.3477 30.0605 17.5099 30.2074 17.629L33.4194 20.177C33.4723 20.2197 33.5352 20.248 33.6022 20.2594C33.6692 20.2708 33.738 20.2648 33.802 20.242C34.7187 19.8883 38.1329 18.0765 42.1678 15.8605L42.9762 24.1686C42.9831 24.2406 43.0095 24.3093 43.0525 24.3674C43.0956 24.4254 43.1536 24.4706 43.2205 24.4981C43.2873 24.5256 43.3604 24.5343 43.4319 24.5233C43.5033 24.5123 43.5704 24.482 43.6259 24.4357L45.4304 22.9343C45.5292 22.8515 45.5956 22.7365 45.6181 22.6095L47.3288 13.0166C50.216 11.4142 52.9734 9.86227 54.915 8.76512C55.1165 8.65547 55.2795 8.48654 55.3817 8.2812C55.484 8.07586 55.5207 7.84405 55.4868 7.61716C55.453 7.39028 55.3502 7.17929 55.1924 7.01278C55.0346 6.84627 54.8294 6.7323 54.6047 6.68629Z" fill="#EAA121"/>
<path d="M40.5847 20.1176C40.5847 20.1176 35.9264 25.0262 32.2023 24.7279C29.8663 24.5408 27.6501 24.4136 28.0112 21.7941C28.2839 19.8149 30.1067 19.6985 31.3641 20.5367C33.6952 22.0908 33.2172 26.3665 30.5259 27.6617C27.7431 29.0009 25.1413 27.279 23.4008 24.7279C22.3021 23.1173 22.5261 20.7154 23.1733 18.4411C24.1054 15.1654 27.592 12.9926 27.592 12.9926" stroke="#EAA121" stroke-linecap="round" stroke-linejoin="round" stroke-dasharray="10 5"/>
</svg>
